<mxfile host="app.diagrams.net" modified="2023-06-13T12:43:04.009Z" agent="Mozilla/5.0 (Windows NT 10.0; Win64; x64) AppleWebKit/537.36 (KHTML, like Gecko) Chrome/114.0.0.0 Safari/537.36 Edg/114.0.1823.43" etag="AMdy9-TYdc2LQWsUFzFR" version="21.3.8" type="device">
  <diagram id="C5RBs43oDa-KdzZeNtuy" name="Page-1">
    <mxGraphModel dx="825" dy="476" grid="1" gridSize="10" guides="1" tooltips="1" connect="1" arrows="1" fold="1" page="1" pageScale="1" pageWidth="827" pageHeight="1169" math="0" shadow="0">
      <root>
        <mxCell id="WIyWlLk6GJQsqaUBKTNV-0" />
        <mxCell id="WIyWlLk6GJQsqaUBKTNV-1" parent="WIyWlLk6GJQsqaUBKTNV-0" />
        <mxCell id="zGY4VPSNcEbg-p3KjOgJ-5" value="" style="edgeStyle=orthogonalEdgeStyle;rounded=0;orthogonalLoop=1;jettySize=auto;html=1;" edge="1" parent="WIyWlLk6GJQsqaUBKTNV-1" source="zGY4VPSNcEbg-p3KjOgJ-2" target="zGY4VPSNcEbg-p3KjOgJ-4">
          <mxGeometry relative="1" as="geometry" />
        </mxCell>
        <mxCell id="zGY4VPSNcEbg-p3KjOgJ-2" value="START" style="ellipse;whiteSpace=wrap;html=1;" vertex="1" parent="WIyWlLk6GJQsqaUBKTNV-1">
          <mxGeometry x="240" y="50" width="240" height="60" as="geometry" />
        </mxCell>
        <mxCell id="zGY4VPSNcEbg-p3KjOgJ-7" value="" style="edgeStyle=orthogonalEdgeStyle;rounded=0;orthogonalLoop=1;jettySize=auto;html=1;" edge="1" parent="WIyWlLk6GJQsqaUBKTNV-1" source="zGY4VPSNcEbg-p3KjOgJ-4" target="zGY4VPSNcEbg-p3KjOgJ-6">
          <mxGeometry relative="1" as="geometry" />
        </mxCell>
        <mxCell id="zGY4VPSNcEbg-p3KjOgJ-4" value="Phi = 3.14" style="rounded=0;whiteSpace=wrap;html=1;" vertex="1" parent="WIyWlLk6GJQsqaUBKTNV-1">
          <mxGeometry x="240" y="150" width="240" height="60" as="geometry" />
        </mxCell>
        <mxCell id="zGY4VPSNcEbg-p3KjOgJ-9" value="" style="edgeStyle=orthogonalEdgeStyle;rounded=0;orthogonalLoop=1;jettySize=auto;html=1;" edge="1" parent="WIyWlLk6GJQsqaUBKTNV-1" source="zGY4VPSNcEbg-p3KjOgJ-6" target="zGY4VPSNcEbg-p3KjOgJ-8">
          <mxGeometry relative="1" as="geometry" />
        </mxCell>
        <mxCell id="zGY4VPSNcEbg-p3KjOgJ-6" value="Masukkan nilai &quot;r&quot;" style="shape=parallelogram;perimeter=parallelogramPerimeter;whiteSpace=wrap;html=1;fixedSize=1;" vertex="1" parent="WIyWlLk6GJQsqaUBKTNV-1">
          <mxGeometry x="240" y="250" width="240" height="60" as="geometry" />
        </mxCell>
        <mxCell id="zGY4VPSNcEbg-p3KjOgJ-14" value="" style="edgeStyle=orthogonalEdgeStyle;rounded=0;orthogonalLoop=1;jettySize=auto;html=1;" edge="1" parent="WIyWlLk6GJQsqaUBKTNV-1" source="zGY4VPSNcEbg-p3KjOgJ-8" target="zGY4VPSNcEbg-p3KjOgJ-10">
          <mxGeometry relative="1" as="geometry" />
        </mxCell>
        <mxCell id="zGY4VPSNcEbg-p3KjOgJ-8" value="L = (3.14)*r*r" style="rounded=0;whiteSpace=wrap;html=1;" vertex="1" parent="WIyWlLk6GJQsqaUBKTNV-1">
          <mxGeometry x="240" y="352" width="240" height="60" as="geometry" />
        </mxCell>
        <mxCell id="zGY4VPSNcEbg-p3KjOgJ-16" value="" style="edgeStyle=orthogonalEdgeStyle;rounded=0;orthogonalLoop=1;jettySize=auto;html=1;" edge="1" parent="WIyWlLk6GJQsqaUBKTNV-1" source="zGY4VPSNcEbg-p3KjOgJ-10" target="zGY4VPSNcEbg-p3KjOgJ-15">
          <mxGeometry relative="1" as="geometry" />
        </mxCell>
        <mxCell id="zGY4VPSNcEbg-p3KjOgJ-10" value="K = 2*(3.14)*r" style="rounded=0;whiteSpace=wrap;html=1;" vertex="1" parent="WIyWlLk6GJQsqaUBKTNV-1">
          <mxGeometry x="240" y="455" width="240" height="60" as="geometry" />
        </mxCell>
        <mxCell id="zGY4VPSNcEbg-p3KjOgJ-18" value="" style="edgeStyle=orthogonalEdgeStyle;rounded=0;orthogonalLoop=1;jettySize=auto;html=1;" edge="1" parent="WIyWlLk6GJQsqaUBKTNV-1" source="zGY4VPSNcEbg-p3KjOgJ-15" target="zGY4VPSNcEbg-p3KjOgJ-17">
          <mxGeometry relative="1" as="geometry" />
        </mxCell>
        <mxCell id="zGY4VPSNcEbg-p3KjOgJ-15" value="Hasil &quot;Luas Lingkaran&quot;" style="shape=parallelogram;perimeter=parallelogramPerimeter;whiteSpace=wrap;html=1;fixedSize=1;" vertex="1" parent="WIyWlLk6GJQsqaUBKTNV-1">
          <mxGeometry x="240" y="554.5" width="240" height="60" as="geometry" />
        </mxCell>
        <mxCell id="zGY4VPSNcEbg-p3KjOgJ-20" value="" style="edgeStyle=orthogonalEdgeStyle;rounded=0;orthogonalLoop=1;jettySize=auto;html=1;" edge="1" parent="WIyWlLk6GJQsqaUBKTNV-1" source="zGY4VPSNcEbg-p3KjOgJ-17" target="zGY4VPSNcEbg-p3KjOgJ-19">
          <mxGeometry relative="1" as="geometry" />
        </mxCell>
        <mxCell id="zGY4VPSNcEbg-p3KjOgJ-17" value="Hasil &quot;Keliling Lingkaran&quot;" style="shape=parallelogram;perimeter=parallelogramPerimeter;whiteSpace=wrap;html=1;fixedSize=1;" vertex="1" parent="WIyWlLk6GJQsqaUBKTNV-1">
          <mxGeometry x="240" y="651.5" width="240" height="60" as="geometry" />
        </mxCell>
        <mxCell id="zGY4VPSNcEbg-p3KjOgJ-19" value="SELESAI" style="ellipse;whiteSpace=wrap;html=1;" vertex="1" parent="WIyWlLk6GJQsqaUBKTNV-1">
          <mxGeometry x="240" y="752" width="240" height="60" as="geometry" />
        </mxCell>
      </root>
    </mxGraphModel>
  </diagram>
</mxfile>
